<svg xmlns="http://www.w3.org/2000/svg" width="24" height="24" viewBox="0 0 24 24" fill="none">
  <path d="M12 2C13.1 2 14 2.9 14 4C14 5.1 13.1 6 12 6C10.9 6 10 5.1 10 4C10 2.9 10.9 2 12 2ZM21 9V7L15 1H5C3.9 1 3 1.9 3 3V21C3 22.1 3.9 23 5 23H19C20.1 23 21 22.1 21 21V9ZM19 21H5V3H13V9H19V21Z" fill="black"/>
  <path d="M8 12H16" stroke="black" stroke-width="2" stroke-linecap="round" stroke-linejoin="round"/>
  <path d="M8 16H16" stroke="black" stroke-width="2" stroke-linecap="round" stroke-linejoin="round"/>
  <path d="M8 8H16" stroke="black" stroke-width="2" stroke-linecap="round" stroke-linejoin="round"/>
  <path d="M8 20H16" stroke="black" stroke-width="2" stroke-linecap="round" stroke-linejoin="round"/>
</svg> 